<mxfile host="app.diagrams.net" modified="2022-03-16T03:48:56.143Z" agent="5.0 (Macintosh; Intel Mac OS X 10_15_7) AppleWebKit/605.1.15 (KHTML, like Gecko) Version/14.1 Safari/605.1.15" etag="UJjYGYc9AcQJcU_qNBUC" version="17.1.3" type="github">
  <diagram id="QJjx0-fPxzvcmYibJWj1" name="Page-1">
    <mxGraphModel dx="3907" dy="825" grid="0" gridSize="10" guides="1" tooltips="1" connect="1" arrows="1" fold="1" page="1" pageScale="1" pageWidth="827" pageHeight="583" background="#ffffff" math="0" shadow="0">
      <root>
        <mxCell id="0" />
        <mxCell id="1" parent="0" />
        <mxCell id="2NbUUM_VBjgZO4ZOoXt3-75" value="" style="shape=cube;whiteSpace=wrap;html=1;boundedLbl=1;backgroundOutline=1;darkOpacity=0.05;darkOpacity2=0.1;size=7;direction=east;flipH=1;fillColor=#ffe6cc;strokeColor=#d79b00;" vertex="1" parent="1">
          <mxGeometry x="-320" y="156.865" width="21.27" height="114.27" as="geometry" />
        </mxCell>
        <mxCell id="2NbUUM_VBjgZO4ZOoXt3-55" value="" style="shape=cube;whiteSpace=wrap;html=1;boundedLbl=1;backgroundOutline=1;darkOpacity=0.05;darkOpacity2=0.1;size=20;direction=east;flipH=1;fillColor=#d5e8d4;strokeColor=#82b366;" vertex="1" parent="1">
          <mxGeometry x="-509.39" y="146.84" width="36" height="120" as="geometry" />
        </mxCell>
        <mxCell id="4f-DMQIj-ya-iA7LCkDa-11" value="" style="shape=cube;whiteSpace=wrap;html=1;boundedLbl=1;backgroundOutline=1;darkOpacity=0.05;darkOpacity2=0.1;size=20;direction=east;flipH=1;fillColor=#dae8fc;strokeColor=#6c8ebf;" parent="1" vertex="1">
          <mxGeometry x="166.73" y="110" width="40" height="210" as="geometry" />
        </mxCell>
        <mxCell id="4f-DMQIj-ya-iA7LCkDa-12" value="" style="shape=cube;whiteSpace=wrap;html=1;boundedLbl=1;backgroundOutline=1;darkOpacity=0.05;darkOpacity2=0.1;size=20;direction=east;flipH=1;fillColor=#d5e8d4;strokeColor=#82b366;" parent="1" vertex="1">
          <mxGeometry x="255.73" y="155" width="36" height="120" as="geometry" />
        </mxCell>
        <mxCell id="4f-DMQIj-ya-iA7LCkDa-15" value="" style="shape=cube;whiteSpace=wrap;html=1;boundedLbl=1;backgroundOutline=1;darkOpacity=0.05;darkOpacity2=0.1;size=10;direction=east;flipH=1;fillColor=#d5e8d4;strokeColor=#82b366;" parent="1" vertex="1">
          <mxGeometry x="332.73" y="182.5" width="25" height="65" as="geometry" />
        </mxCell>
        <mxCell id="4f-DMQIj-ya-iA7LCkDa-23" value="" style="shape=cube;whiteSpace=wrap;html=1;boundedLbl=1;backgroundOutline=1;darkOpacity=0.05;darkOpacity2=0.1;size=7;direction=east;flipH=1;fillColor=#dae8fc;strokeColor=#6c8ebf;" parent="1" vertex="1">
          <mxGeometry x="579.71" y="392.94000000000005" width="30" height="20" as="geometry" />
        </mxCell>
        <mxCell id="4f-DMQIj-ya-iA7LCkDa-24" value="" style="shape=cube;whiteSpace=wrap;html=1;boundedLbl=1;backgroundOutline=1;darkOpacity=0.05;darkOpacity2=0.1;size=7;direction=east;flipH=1;fillColor=#d5e8d4;strokeColor=#82b366;" parent="1" vertex="1">
          <mxGeometry x="579.71" y="422.94000000000005" width="30" height="20" as="geometry" />
        </mxCell>
        <mxCell id="4f-DMQIj-ya-iA7LCkDa-26" value="" style="shape=cube;whiteSpace=wrap;html=1;boundedLbl=1;backgroundOutline=1;darkOpacity=0.05;darkOpacity2=0.1;size=7;direction=east;flipH=1;fillColor=#ffe6cc;strokeColor=#d79b00;" parent="1" vertex="1">
          <mxGeometry x="380.23" y="205" width="30" height="20" as="geometry" />
        </mxCell>
        <mxCell id="4f-DMQIj-ya-iA7LCkDa-39" value="n x m x c" style="text;html=1;strokeColor=none;fillColor=none;align=center;verticalAlign=middle;whiteSpace=wrap;rounded=0;" parent="1" vertex="1">
          <mxGeometry x="126.72999999999999" y="330" width="99" height="30" as="geometry" />
        </mxCell>
        <mxCell id="4f-DMQIj-ya-iA7LCkDa-50" value="Input Tensor" style="text;html=1;strokeColor=none;fillColor=none;align=left;verticalAlign=middle;whiteSpace=wrap;rounded=0;fontStyle=1" parent="1" vertex="1">
          <mxGeometry x="620.71" y="390" width="138" height="23.88" as="geometry" />
        </mxCell>
        <mxCell id="4f-DMQIj-ya-iA7LCkDa-51" value="LSTM Neurons" style="text;html=1;strokeColor=none;fillColor=none;align=left;verticalAlign=middle;whiteSpace=wrap;rounded=0;fontStyle=1" parent="1" vertex="1">
          <mxGeometry x="620.71" y="420" width="138" height="23.88" as="geometry" />
        </mxCell>
        <mxCell id="4f-DMQIj-ya-iA7LCkDa-52" value="Encoded Features" style="text;html=1;strokeColor=none;fillColor=none;align=left;verticalAlign=middle;whiteSpace=wrap;rounded=0;fontStyle=1" parent="1" vertex="1">
          <mxGeometry x="620.71" y="451.06000000000006" width="138" height="23.88" as="geometry" />
        </mxCell>
        <mxCell id="q16qMvtAuAjUv3j_tnUs-1" value="" style="shape=cube;whiteSpace=wrap;html=1;boundedLbl=1;backgroundOutline=1;darkOpacity=0.05;darkOpacity2=0.1;size=20;direction=east;flipH=1;fillColor=#fff2cc;strokeColor=#d6b656;" parent="1" vertex="1">
          <mxGeometry x="578.44" y="110" width="40" height="210" as="geometry" />
        </mxCell>
        <mxCell id="q16qMvtAuAjUv3j_tnUs-4" value="" style="shape=cube;whiteSpace=wrap;html=1;boundedLbl=1;backgroundOutline=1;darkOpacity=0.05;darkOpacity2=0.1;size=10;direction=east;flipH=1;fillColor=#d5e8d4;strokeColor=#82b366;" parent="1" vertex="1">
          <mxGeometry x="431.44" y="182.5" width="25" height="65" as="geometry" />
        </mxCell>
        <mxCell id="q16qMvtAuAjUv3j_tnUs-5" value="" style="shape=cube;whiteSpace=wrap;html=1;boundedLbl=1;backgroundOutline=1;darkOpacity=0.05;darkOpacity2=0.1;size=20;direction=east;flipH=1;fillColor=#d5e8d4;strokeColor=#82b366;" parent="1" vertex="1">
          <mxGeometry x="488.44" y="155" width="36" height="120" as="geometry" />
        </mxCell>
        <mxCell id="q16qMvtAuAjUv3j_tnUs-6" value="" style="shape=cube;whiteSpace=wrap;html=1;boundedLbl=1;backgroundOutline=1;darkOpacity=0.05;darkOpacity2=0.1;size=7;direction=east;flipH=1;fillColor=#ffe6cc;strokeColor=#d79b00;" parent="1" vertex="1">
          <mxGeometry x="579.71" y="453" width="30" height="20" as="geometry" />
        </mxCell>
        <mxCell id="q16qMvtAuAjUv3j_tnUs-7" value="" style="shape=cube;whiteSpace=wrap;html=1;boundedLbl=1;backgroundOutline=1;darkOpacity=0.05;darkOpacity2=0.1;size=7;direction=east;flipH=1;fillColor=#fff2cc;strokeColor=#d6b656;" parent="1" vertex="1">
          <mxGeometry x="579.71" y="490.00000000000006" width="30" height="20" as="geometry" />
        </mxCell>
        <mxCell id="q16qMvtAuAjUv3j_tnUs-8" value="Predicted Tensor" style="text;html=1;strokeColor=none;fillColor=none;align=left;verticalAlign=middle;whiteSpace=wrap;rounded=0;fontStyle=1" parent="1" vertex="1">
          <mxGeometry x="620.71" y="486.12000000000006" width="138" height="23.88" as="geometry" />
        </mxCell>
        <mxCell id="q16qMvtAuAjUv3j_tnUs-13" value="" style="shape=trapezoid;perimeter=trapezoidPerimeter;whiteSpace=wrap;html=1;fixedSize=1;rotation=-90;dashed=1;dashPattern=1 1;fillColor=none;direction=west;size=38.41000000000008;" parent="1" vertex="1">
          <mxGeometry x="381.73" y="154.69" width="207.98" height="122.45" as="geometry" />
        </mxCell>
        <mxCell id="q16qMvtAuAjUv3j_tnUs-14" value="&lt;b&gt;Encoding lstm&amp;nbsp;&lt;/b&gt;" style="text;html=1;strokeColor=none;fillColor=none;align=center;verticalAlign=middle;whiteSpace=wrap;rounded=0;dashed=1;dashPattern=1 1;" parent="1" vertex="1">
          <mxGeometry x="406.47" y="412.03999999999996" width="116" height="20" as="geometry" />
        </mxCell>
        <mxCell id="q16qMvtAuAjUv3j_tnUs-15" value="&lt;b&gt;Decoding lstm&amp;nbsp;&lt;/b&gt;" style="text;html=1;strokeColor=none;fillColor=none;align=center;verticalAlign=middle;whiteSpace=wrap;rounded=0;dashed=1;dashPattern=1 1;" parent="1" vertex="1">
          <mxGeometry x="417.47" y="482.0400000000001" width="116" height="20" as="geometry" />
        </mxCell>
        <mxCell id="q16qMvtAuAjUv3j_tnUs-16" value="" style="shape=trapezoid;perimeter=trapezoidPerimeter;whiteSpace=wrap;html=1;fixedSize=1;fillColor=none;rotation=-90;dashed=1;dashPattern=1 1;" parent="1" vertex="1">
          <mxGeometry x="360" y="404.08000000000004" width="57.47" height="35.92" as="geometry" />
        </mxCell>
        <mxCell id="q16qMvtAuAjUv3j_tnUs-17" value="" style="shape=trapezoid;perimeter=trapezoidPerimeter;whiteSpace=wrap;html=1;fixedSize=1;rotation=90;dashed=1;dashPattern=1 1;fillColor=none;direction=west;size=38.41000000000008;" parent="1" vertex="1">
          <mxGeometry x="199.73999999999998" y="153.77" width="207.98" height="122.45" as="geometry" />
        </mxCell>
        <mxCell id="q16qMvtAuAjUv3j_tnUs-19" value="" style="shape=trapezoid;perimeter=trapezoidPerimeter;whiteSpace=wrap;html=1;fixedSize=1;dashed=1;dashPattern=1 1;fillColor=none;rotation=-90;direction=west;" parent="1" vertex="1">
          <mxGeometry x="360" y="474.08000000000004" width="57.47" height="35.92" as="geometry" />
        </mxCell>
        <mxCell id="q16qMvtAuAjUv3j_tnUs-20" value="n x m x c" style="text;html=1;strokeColor=none;fillColor=none;align=center;verticalAlign=middle;whiteSpace=wrap;rounded=0;" parent="1" vertex="1">
          <mxGeometry x="551.73" y="330" width="99" height="30" as="geometry" />
        </mxCell>
        <mxCell id="q16qMvtAuAjUv3j_tnUs-21" value="n1 x m x c" style="text;html=1;strokeColor=none;fillColor=none;align=center;verticalAlign=middle;whiteSpace=wrap;rounded=0;dashed=1;dashPattern=1 1;" parent="1" vertex="1">
          <mxGeometry x="216.73" y="300" width="80" height="20" as="geometry" />
        </mxCell>
        <mxCell id="q16qMvtAuAjUv3j_tnUs-22" value="n2&amp;nbsp;x m x c" style="text;html=1;strokeColor=none;fillColor=none;align=center;verticalAlign=middle;whiteSpace=wrap;rounded=0;dashed=1;dashPattern=1 1;" parent="1" vertex="1">
          <mxGeometry x="318.73" y="320" width="80" height="20" as="geometry" />
        </mxCell>
        <mxCell id="q16qMvtAuAjUv3j_tnUs-23" value="n2&amp;nbsp;x m x c" style="text;html=1;strokeColor=none;fillColor=none;align=center;verticalAlign=middle;whiteSpace=wrap;rounded=0;dashed=1;dashPattern=1 1;" parent="1" vertex="1">
          <mxGeometry x="403.94" y="320" width="80" height="20" as="geometry" />
        </mxCell>
        <mxCell id="q16qMvtAuAjUv3j_tnUs-24" value="n1 x m x c" style="text;html=1;strokeColor=none;fillColor=none;align=center;verticalAlign=middle;whiteSpace=wrap;rounded=0;dashed=1;dashPattern=1 1;" parent="1" vertex="1">
          <mxGeometry x="488.44" y="300" width="80" height="20" as="geometry" />
        </mxCell>
        <mxCell id="q16qMvtAuAjUv3j_tnUs-25" value="n = Number of windows&amp;nbsp;" style="text;html=1;strokeColor=none;fillColor=none;align=center;verticalAlign=middle;whiteSpace=wrap;rounded=0;dashed=1;dashPattern=1 1;" parent="1" vertex="1">
          <mxGeometry x="68" y="410" width="156.51" height="20" as="geometry" />
        </mxCell>
        <mxCell id="q16qMvtAuAjUv3j_tnUs-26" value="m = window size&amp;nbsp;&amp;nbsp;" style="text;html=1;strokeColor=none;fillColor=none;align=left;verticalAlign=middle;whiteSpace=wrap;rounded=0;dashed=1;dashPattern=1 1;" parent="1" vertex="1">
          <mxGeometry x="80.00999999999999" y="430" width="140" height="20" as="geometry" />
        </mxCell>
        <mxCell id="q16qMvtAuAjUv3j_tnUs-27" value="c = Number of channels (features)&amp;nbsp;" style="text;html=1;strokeColor=none;fillColor=none;align=left;verticalAlign=middle;whiteSpace=wrap;rounded=0;dashed=1;dashPattern=1 1;" parent="1" vertex="1">
          <mxGeometry x="80.00999999999999" y="450" width="211" height="20" as="geometry" />
        </mxCell>
        <mxCell id="q16qMvtAuAjUv3j_tnUs-28" value="n1 = Neuron&#39;s number of layer 1 and 4&amp;nbsp;" style="text;html=1;strokeColor=none;fillColor=none;align=left;verticalAlign=middle;whiteSpace=wrap;rounded=0;dashed=1;dashPattern=1 1;" parent="1" vertex="1">
          <mxGeometry x="80.00999999999999" y="471.06" width="221" height="20" as="geometry" />
        </mxCell>
        <mxCell id="q16qMvtAuAjUv3j_tnUs-29" value="n2 = Neuron&#39;s number of layer 2 and 3&amp;nbsp;" style="text;html=1;strokeColor=none;fillColor=none;align=left;verticalAlign=middle;whiteSpace=wrap;rounded=0;dashed=1;dashPattern=1 1;" parent="1" vertex="1">
          <mxGeometry x="80.00999999999999" y="498.16" width="221" height="20" as="geometry" />
        </mxCell>
        <mxCell id="2NbUUM_VBjgZO4ZOoXt3-5" value="n = Number of windows&amp;nbsp;" style="text;html=1;strokeColor=none;fillColor=none;align=left;verticalAlign=middle;whiteSpace=wrap;rounded=0;dashed=1;dashPattern=1 1;" vertex="1" parent="1">
          <mxGeometry x="-1339.24" y="367.94" width="156.51" height="20" as="geometry" />
        </mxCell>
        <mxCell id="2NbUUM_VBjgZO4ZOoXt3-6" value="m = window size&amp;nbsp;&amp;nbsp;" style="text;html=1;strokeColor=none;fillColor=none;align=left;verticalAlign=middle;whiteSpace=wrap;rounded=0;dashed=1;dashPattern=1 1;" vertex="1" parent="1">
          <mxGeometry x="-1339.24" y="391.98" width="140" height="20" as="geometry" />
        </mxCell>
        <mxCell id="2NbUUM_VBjgZO4ZOoXt3-7" value="c = Number of channels (features)&amp;nbsp;" style="text;html=1;strokeColor=none;fillColor=none;align=left;verticalAlign=middle;whiteSpace=wrap;rounded=0;dashed=1;dashPattern=1 1;" vertex="1" parent="1">
          <mxGeometry x="-1339.24" y="411.98" width="211" height="20" as="geometry" />
        </mxCell>
        <mxCell id="2NbUUM_VBjgZO4ZOoXt3-8" value="n1 = Neuron&#39;s number of layer 1 and 4&amp;nbsp;" style="text;html=1;strokeColor=none;fillColor=none;align=left;verticalAlign=middle;whiteSpace=wrap;rounded=0;dashed=1;dashPattern=1 1;" vertex="1" parent="1">
          <mxGeometry x="-1339.24" y="433.04" width="221" height="20" as="geometry" />
        </mxCell>
        <mxCell id="2NbUUM_VBjgZO4ZOoXt3-9" value="n2 = Neuron&#39;s number of layer 2 and 3&amp;nbsp;" style="text;html=1;strokeColor=none;fillColor=none;align=left;verticalAlign=middle;whiteSpace=wrap;rounded=0;dashed=1;dashPattern=1 1;" vertex="1" parent="1">
          <mxGeometry x="-1339.24" y="460.14000000000004" width="221" height="20" as="geometry" />
        </mxCell>
        <mxCell id="2NbUUM_VBjgZO4ZOoXt3-11" value="" style="shape=cube;whiteSpace=wrap;html=1;boundedLbl=1;backgroundOutline=1;darkOpacity=0.05;darkOpacity2=0.1;fillColor=#dae8fc;direction=east;size=25;flipV=1;flipH=1;container=0;rotation=-90;strokeColor=#6c8ebf;" vertex="1" parent="1">
          <mxGeometry x="-1612.25" y="363.27" width="84.5" height="227.96" as="geometry" />
        </mxCell>
        <mxCell id="2NbUUM_VBjgZO4ZOoXt3-2" value="" style="shape=cube;whiteSpace=wrap;html=1;boundedLbl=1;backgroundOutline=1;darkOpacity=0.05;darkOpacity2=0.1;fillColor=#ffe6cc;direction=east;size=25;flipV=1;flipH=1;container=0;rotation=-90;strokeColor=#d79b00;" vertex="1" parent="1">
          <mxGeometry x="-1590" y="341.02" width="40" height="227.96" as="geometry" />
        </mxCell>
        <mxCell id="2NbUUM_VBjgZO4ZOoXt3-12" value="" style="shape=cube;whiteSpace=wrap;html=1;boundedLbl=1;backgroundOutline=1;darkOpacity=0.05;darkOpacity2=0.1;fillColor=#f0a30a;direction=east;size=25;flipV=1;flipH=1;container=0;rotation=-90;strokeColor=#BD7000;fontColor=#000000;" vertex="1" parent="1">
          <mxGeometry x="-1685" y="436.18" width="40" height="36.98" as="geometry" />
        </mxCell>
        <mxCell id="2NbUUM_VBjgZO4ZOoXt3-14" value="" style="shape=cube;whiteSpace=wrap;html=1;boundedLbl=1;backgroundOutline=1;darkOpacity=0.05;darkOpacity2=0.1;size=7;direction=east;flipH=1;fillColor=#dae8fc;strokeColor=#6c8ebf;" vertex="1" parent="1">
          <mxGeometry x="-1314" y="225.00000000000006" width="30" height="20" as="geometry" />
        </mxCell>
        <mxCell id="2NbUUM_VBjgZO4ZOoXt3-15" value="" style="shape=cube;whiteSpace=wrap;html=1;boundedLbl=1;backgroundOutline=1;darkOpacity=0.05;darkOpacity2=0.1;size=7;direction=east;flipH=1;fillColor=#d5e8d4;strokeColor=#82b366;" vertex="1" parent="1">
          <mxGeometry x="-1627" y="368.88" width="119" height="20" as="geometry" />
        </mxCell>
        <mxCell id="2NbUUM_VBjgZO4ZOoXt3-16" value="" style="shape=cube;whiteSpace=wrap;html=1;boundedLbl=1;backgroundOutline=1;darkOpacity=0.05;darkOpacity2=0.1;size=20;direction=east;flipH=1;fillColor=#dae8fc;strokeColor=#6c8ebf;" vertex="1" parent="1">
          <mxGeometry x="-624" y="101.84" width="41.73" height="210" as="geometry" />
        </mxCell>
        <mxCell id="2NbUUM_VBjgZO4ZOoXt3-17" value="" style="shape=cube;whiteSpace=wrap;html=1;boundedLbl=1;backgroundOutline=1;darkOpacity=0.05;darkOpacity2=0.1;size=20;direction=east;flipH=1;fillColor=#d5e8d4;strokeColor=#82b366;" vertex="1" parent="1">
          <mxGeometry x="-556.66" y="146.84" width="36" height="120" as="geometry" />
        </mxCell>
        <mxCell id="2NbUUM_VBjgZO4ZOoXt3-21" value="" style="shape=cube;whiteSpace=wrap;html=1;boundedLbl=1;backgroundOutline=1;darkOpacity=0.05;darkOpacity2=0.1;size=7;direction=east;flipH=1;fillColor=#d0cee2;strokeColor=#56517e;" vertex="1" parent="1">
          <mxGeometry x="-383.99999999999994" y="101.84" width="24.53" height="210" as="geometry" />
        </mxCell>
        <mxCell id="2NbUUM_VBjgZO4ZOoXt3-22" value="B x T x D" style="text;html=1;strokeColor=none;fillColor=none;align=center;verticalAlign=middle;whiteSpace=wrap;rounded=0;" vertex="1" parent="1">
          <mxGeometry x="-655.66" y="323" width="99" height="30" as="geometry" />
        </mxCell>
        <mxCell id="2NbUUM_VBjgZO4ZOoXt3-26" value="" style="shape=cube;whiteSpace=wrap;html=1;boundedLbl=1;backgroundOutline=1;darkOpacity=0.05;darkOpacity2=0.1;size=20;direction=east;flipH=1;fillColor=#fff2cc;strokeColor=#d6b656;" vertex="1" parent="1">
          <mxGeometry x="-258.2699999999999" y="101.84" width="40" height="210" as="geometry" />
        </mxCell>
        <mxCell id="2NbUUM_VBjgZO4ZOoXt3-32" value="" style="shape=trapezoid;perimeter=trapezoidPerimeter;whiteSpace=wrap;html=1;fixedSize=1;rotation=-90;dashed=1;dashPattern=1 1;fillColor=none;direction=west;size=38.41000000000008;" vertex="1" parent="1">
          <mxGeometry x="-589.89" y="118.23" width="207.98" height="177.22" as="geometry" />
        </mxCell>
        <mxCell id="2NbUUM_VBjgZO4ZOoXt3-33" value="&lt;b&gt;Encoder&amp;nbsp;&lt;/b&gt;" style="text;html=1;strokeColor=none;fillColor=none;align=center;verticalAlign=middle;whiteSpace=wrap;rounded=0;dashed=1;dashPattern=1 1;" vertex="1" parent="1">
          <mxGeometry x="-393.47" y="402.9699999999999" width="116" height="20" as="geometry" />
        </mxCell>
        <mxCell id="2NbUUM_VBjgZO4ZOoXt3-34" value="&lt;b&gt;Decoder&lt;/b&gt;" style="text;html=1;strokeColor=none;fillColor=none;align=center;verticalAlign=middle;whiteSpace=wrap;rounded=0;dashed=1;dashPattern=1 1;" vertex="1" parent="1">
          <mxGeometry x="-393.47" y="467.05" width="116" height="20" as="geometry" />
        </mxCell>
        <mxCell id="2NbUUM_VBjgZO4ZOoXt3-35" value="" style="shape=trapezoid;perimeter=trapezoidPerimeter;whiteSpace=wrap;html=1;fixedSize=1;fillColor=none;rotation=-90;dashed=1;dashPattern=1 1;" vertex="1" parent="1">
          <mxGeometry x="-284" y="459.0899999999999" width="57.47" height="35.92" as="geometry" />
        </mxCell>
        <mxCell id="2NbUUM_VBjgZO4ZOoXt3-37" value="" style="shape=trapezoid;perimeter=trapezoidPerimeter;whiteSpace=wrap;html=1;fixedSize=1;dashed=1;dashPattern=1 1;fillColor=none;rotation=-90;direction=west;" vertex="1" parent="1">
          <mxGeometry x="-284" y="390.09" width="57.47" height="35.92" as="geometry" />
        </mxCell>
        <mxCell id="2NbUUM_VBjgZO4ZOoXt3-39" value="B x T x N" style="text;html=1;strokeColor=none;fillColor=none;align=center;verticalAlign=middle;whiteSpace=wrap;rounded=0;dashed=1;dashPattern=1 1;" vertex="1" parent="1">
          <mxGeometry x="-411.72999999999996" y="328" width="80" height="20" as="geometry" />
        </mxCell>
        <mxCell id="2NbUUM_VBjgZO4ZOoXt3-43" value="B = Batch size&amp;nbsp;" style="text;html=1;strokeColor=none;fillColor=none;align=left;verticalAlign=middle;whiteSpace=wrap;rounded=0;dashed=1;dashPattern=1 1;flipH=1;" vertex="1" parent="1">
          <mxGeometry x="-611" y="384.99999999999994" width="156.51" height="20" as="geometry" />
        </mxCell>
        <mxCell id="2NbUUM_VBjgZO4ZOoXt3-44" value="T = time steps, i.e. number of frames" style="text;html=1;strokeColor=none;fillColor=none;align=left;verticalAlign=middle;whiteSpace=wrap;rounded=0;dashed=1;dashPattern=1 1;flipH=1;" vertex="1" parent="1">
          <mxGeometry x="-611" y="405" width="222" height="20" as="geometry" />
        </mxCell>
        <mxCell id="2NbUUM_VBjgZO4ZOoXt3-45" value="D = dimension of tensor" style="text;html=1;strokeColor=none;fillColor=none;align=left;verticalAlign=middle;whiteSpace=wrap;rounded=0;dashed=1;dashPattern=1 1;flipH=1;" vertex="1" parent="1">
          <mxGeometry x="-611" y="424.99999999999994" width="211" height="20" as="geometry" />
        </mxCell>
        <mxCell id="2NbUUM_VBjgZO4ZOoXt3-46" value="N = number of codebooks&amp;nbsp;" style="text;html=1;strokeColor=none;fillColor=none;align=left;verticalAlign=middle;whiteSpace=wrap;rounded=0;dashed=1;dashPattern=1 1;flipH=1;" vertex="1" parent="1">
          <mxGeometry x="-611" y="446.05999999999995" width="221" height="20" as="geometry" />
        </mxCell>
        <mxCell id="2NbUUM_VBjgZO4ZOoXt3-47" value="C = codebook size&amp;nbsp;" style="text;html=1;strokeColor=none;fillColor=none;align=left;verticalAlign=middle;whiteSpace=wrap;rounded=0;dashed=1;dashPattern=1 1;flipH=1;" vertex="1" parent="1">
          <mxGeometry x="-611" y="473.16" width="221" height="20" as="geometry" />
        </mxCell>
        <mxCell id="2NbUUM_VBjgZO4ZOoXt3-50" value="x: input" style="text;html=1;strokeColor=none;fillColor=none;align=center;verticalAlign=middle;whiteSpace=wrap;rounded=0;dashed=1;dashPattern=1 1;" vertex="1" parent="1">
          <mxGeometry x="-654" y="205" width="70.78" height="20" as="geometry" />
        </mxCell>
        <mxCell id="2NbUUM_VBjgZO4ZOoXt3-51" value="linear" style="text;html=1;strokeColor=none;fillColor=none;align=center;verticalAlign=middle;whiteSpace=wrap;rounded=0;dashed=1;dashPattern=1 1;" vertex="1" parent="1">
          <mxGeometry x="-586" y="206.87" width="56" height="20" as="geometry" />
        </mxCell>
        <mxCell id="2NbUUM_VBjgZO4ZOoXt3-52" value="argmax" style="text;html=1;strokeColor=none;fillColor=none;align=center;verticalAlign=middle;whiteSpace=wrap;rounded=0;dashed=1;dashPattern=1 1;" vertex="1" parent="1">
          <mxGeometry x="-535.27" y="204" width="74" height="20" as="geometry" />
        </mxCell>
        <mxCell id="2NbUUM_VBjgZO4ZOoXt3-56" value="" style="shape=cube;whiteSpace=wrap;html=1;boundedLbl=1;backgroundOutline=1;darkOpacity=0.05;darkOpacity2=0.1;size=20;direction=east;flipH=1;fillColor=#d5e8d4;strokeColor=#82b366;" vertex="1" parent="1">
          <mxGeometry x="-450.91999999999996" y="146.84" width="36" height="120" as="geometry" />
        </mxCell>
        <mxCell id="2NbUUM_VBjgZO4ZOoXt3-57" value="index refine&lt;br&gt;module" style="text;html=1;strokeColor=none;fillColor=none;align=center;verticalAlign=middle;whiteSpace=wrap;rounded=0;dashed=1;dashPattern=1 1;" vertex="1" parent="1">
          <mxGeometry x="-475.47" y="205" width="74" height="20" as="geometry" />
        </mxCell>
        <mxCell id="2NbUUM_VBjgZO4ZOoXt3-58" value="codebook indexes" style="text;html=1;strokeColor=none;fillColor=none;align=center;verticalAlign=middle;whiteSpace=wrap;rounded=0;dashed=1;dashPattern=1 1;labelBackgroundColor=none;" vertex="1" parent="1">
          <mxGeometry x="-399.73999999999995" y="204" width="56" height="20" as="geometry" />
        </mxCell>
        <mxCell id="2NbUUM_VBjgZO4ZOoXt3-59" value="centers" style="text;html=1;strokeColor=none;fillColor=none;align=center;verticalAlign=middle;whiteSpace=wrap;rounded=0;dashed=1;dashPattern=1 1;" vertex="1" parent="1">
          <mxGeometry x="-346.35999999999996" y="202" width="74" height="20" as="geometry" />
        </mxCell>
        <mxCell id="2NbUUM_VBjgZO4ZOoXt3-61" value="" style="shape=trapezoid;perimeter=trapezoidPerimeter;whiteSpace=wrap;html=1;fixedSize=1;rotation=90;dashed=1;dashPattern=1 1;fillColor=none;direction=west;size=38.41000000000008;container=0;" vertex="1" parent="1">
          <mxGeometry x="-406.86" y="173.21" width="195" height="67.26" as="geometry" />
        </mxCell>
        <mxCell id="2NbUUM_VBjgZO4ZOoXt3-62" value="NxDxC" style="text;html=1;strokeColor=none;fillColor=none;align=center;verticalAlign=middle;whiteSpace=wrap;rounded=0;dashed=1;dashPattern=1 1;" vertex="1" parent="1">
          <mxGeometry x="-589.89" y="328" width="80" height="20" as="geometry" />
        </mxCell>
        <mxCell id="2NbUUM_VBjgZO4ZOoXt3-63" value="NxCxD" style="text;html=1;strokeColor=none;fillColor=none;align=center;verticalAlign=middle;whiteSpace=wrap;rounded=0;dashed=1;dashPattern=1 1;" vertex="1" parent="1">
          <mxGeometry x="-349.35999999999996" y="328" width="80" height="20" as="geometry" />
        </mxCell>
        <mxCell id="2NbUUM_VBjgZO4ZOoXt3-65" value="B x T x D" style="text;html=1;strokeColor=none;fillColor=none;align=center;verticalAlign=middle;whiteSpace=wrap;rounded=0;dashed=1;dashPattern=1 1;" vertex="1" parent="1">
          <mxGeometry x="-278.27" y="328" width="80" height="20" as="geometry" />
        </mxCell>
      </root>
    </mxGraphModel>
  </diagram>
</mxfile>
